<svg xmlns="http://www.w3.org/2000/svg" width="1000" height="760" viewBox="0 0 1000 760" role="img" font-family="Manrope, 'Segoe UI', system-ui, sans-serif">
<title>The hazard world model, deployed</title>
<rect width="1000" height="760" fill="#ffffff"/>
<defs><marker id="arrow5" viewBox="0 0 10 10" refX="8" refY="5" markerWidth="6" markerHeight="6" orient="auto-start-reverse"><path d="M2 1L8 5L2 9" fill="none" stroke="#555" stroke-width="1.5" stroke-linecap="round" stroke-linejoin="round"/></marker></defs>
<g><rect fill="#E8F1FB" stroke="#2F6FB3" x="40" y="30" width="760" height="150" rx="20" stroke-width="0.75"/><text font-size="14" font-weight="700" fill="#0C447C" x="60" y="50" dominant-baseline="central">Hazard world model</text><text font-size="12" font-weight="500" fill="#0C447C" x="60" y="66" dominant-baseline="central">general: how hazards unfold and how we manage them · owns every model · knows no one person's context</text><text font-size="12" font-weight="500" fill="#0C447C" x="60" y="152" dominant-baseline="central">learned from: world history, real event records, model knowledge, mitigation activity,</text><text font-size="12" font-weight="500" fill="#0C447C" x="60" y="166" dominant-baseline="central">technology change, outside data sources, our own activity data</text></g>
<g><rect fill="#DDF3F0" stroke="#1F8A7A" x="60" y="78" width="172" height="60" rx="8" stroke-width="0.75"/><text font-size="14" font-weight="700" fill="#0B4F46" x="146" y="96" text-anchor="middle" dominant-baseline="central">Hazard models</text><text font-size="12" font-weight="500" fill="#1F6E62" x="146" y="113" text-anchor="middle" dominant-baseline="central">triggers, sequences,</text><text font-size="12" font-weight="500" fill="#1F6E62" x="146" y="128" text-anchor="middle" dominant-baseline="central">cascades, end signals</text></g>
<g><rect fill="#DDF3F0" stroke="#1F8A7A" x="244" y="78" width="172" height="60" rx="8" stroke-width="0.75"/><text font-size="14" font-weight="700" fill="#0B4F46" x="330" y="96" text-anchor="middle" dominant-baseline="central">Impact models</text><text font-size="12" font-weight="500" fill="#1F6E62" x="330" y="113" text-anchor="middle" dominant-baseline="central">force out, force taken</text><text font-size="12" font-weight="500" fill="#1F6E62" x="330" y="128" text-anchor="middle" dominant-baseline="central">by structures and people</text></g>
<g><rect fill="#DDF3F0" stroke="#1F8A7A" x="428" y="78" width="172" height="60" rx="8" stroke-width="0.75"/><text font-size="14" font-weight="700" fill="#0B4F46" x="514" y="96" text-anchor="middle" dominant-baseline="central">Mitigation models</text><text font-size="12" font-weight="500" fill="#1F6E62" x="514" y="113" text-anchor="middle" dominant-baseline="central">what interventions and</text><text font-size="12" font-weight="500" fill="#1F6E62" x="514" y="128" text-anchor="middle" dominant-baseline="central">tech change the outcome</text></g>
<g><rect fill="#DDF3F0" stroke="#1F8A7A" x="612" y="78" width="172" height="60" rx="8" stroke-width="0.75"/><text font-size="14" font-weight="700" fill="#0B4F46" x="698" y="96" text-anchor="middle" dominant-baseline="central">Observation model</text><text font-size="12" font-weight="500" fill="#1F6E62" x="698" y="113" text-anchor="middle" dominant-baseline="central">each stage, as a sensor</text><text font-size="12" font-weight="500" fill="#1F6E62" x="698" y="128" text-anchor="middle" dominant-baseline="central">would see it</text></g>
<g><path fill="#DDF3F0" stroke="#1F8A7A" d="M820 47 a75.0 7 0 0 0 150 0 v58 a75.0 7 0 0 1 -150 0 z" stroke-width="0.75"/><ellipse fill="#DDF3F0" stroke="#1F8A7A" cx="895" cy="47" rx="75.0" ry="7" stroke-width="0.75"/><text font-size="14" font-weight="700" fill="#0B4F46" x="895" y="65" text-anchor="middle" dominant-baseline="central">Model registry</text><text font-size="12" font-weight="500" fill="#1F6E62" x="895" y="81" text-anchor="middle" dominant-baseline="central">weights, templates,</text><text font-size="12" font-weight="500" fill="#1F6E62" x="895" y="95" text-anchor="middle" dominant-baseline="central">scorecards, pinned</text></g>
<g><path fill="#DDF3F0" stroke="#1F8A7A" d="M820 127 a75.0 7 0 0 0 150 0 v58 a75.0 7 0 0 1 -150 0 z" stroke-width="0.75"/><ellipse fill="#DDF3F0" stroke="#1F8A7A" cx="895" cy="127" rx="75.0" ry="7" stroke-width="0.75"/><text font-size="14" font-weight="700" fill="#0B4F46" x="895" y="145" text-anchor="middle" dominant-baseline="central">Knowledge base</text><text font-size="12" font-weight="500" fill="#1F6E62" x="895" y="161" text-anchor="middle" dominant-baseline="central">history, records</text><text font-size="12" font-weight="500" fill="#1F6E62" x="895" y="175" text-anchor="middle" dominant-baseline="central">mitigation, tech change</text></g>
<path stroke="#555" stroke-width="1.5" d="M818 76 H802" fill="none" marker-end="url(#arrow5)"/>
<path stroke="#555" stroke-width="1.5" d="M818 156 H802" fill="none" marker-end="url(#arrow5)"/>
<g><rect fill="#FBF0D6" stroke="#B7791F" x="40" y="220" width="176" height="56" rx="8" stroke-width="0.75"/><text font-size="14" font-weight="700" fill="#6B4308" x="128" y="238" text-anchor="middle" dominant-baseline="central">Expected signals</text><text font-size="12" font-weight="500" fill="#8C5A12" x="128" y="255" text-anchor="middle" dominant-baseline="central">by place, time, sensor</text></g>
<g><rect fill="#EEE8FA" stroke="#6C4BB8" x="300" y="220" width="300" height="60" rx="8" stroke-width="0.75"/><text font-size="14" font-weight="700" fill="#3A2478" x="450" y="238" text-anchor="middle" dominant-baseline="central">World state</text><text font-size="12" font-weight="500" fill="#5B3FA0" x="450" y="255" text-anchor="middle" dominant-baseline="central">this place, these people, now:</text><text font-size="12" font-weight="500" fill="#5B3FA0" x="450" y="270" text-anchor="middle" dominant-baseline="central">past, present, future scenarios</text></g>
<g><path fill="#EEE8FA" stroke="#6C4BB8" d="M620 223 a90.0 7 0 0 0 180 0 v58 a90.0 7 0 0 1 -180 0 z" stroke-width="0.75"/><ellipse fill="#EEE8FA" stroke="#6C4BB8" cx="710" cy="223" rx="90.0" ry="7" stroke-width="0.75"/><text font-size="14" font-weight="700" fill="#3A2478" x="710" y="241" text-anchor="middle" dominant-baseline="central">World state history</text><text font-size="12" font-weight="500" fill="#5B3FA0" x="710" y="257" text-anchor="middle" dominant-baseline="central">every scenario set,</text><text font-size="12" font-weight="500" fill="#5B3FA0" x="710" y="271" text-anchor="middle" dominant-baseline="central">timestamped</text></g>
<g><path fill="#EEE8FA" stroke="#6C4BB8" d="M820 223 a75.0 7 0 0 0 150 0 v58 a75.0 7 0 0 1 -150 0 z" stroke-width="0.75"/><ellipse fill="#EEE8FA" stroke="#6C4BB8" cx="895" cy="223" rx="75.0" ry="7" stroke-width="0.75"/><text font-size="14" font-weight="700" fill="#3A2478" x="895" y="241" text-anchor="middle" dominant-baseline="central">Place priors</text><text font-size="12" font-weight="500" fill="#5B3FA0" x="895" y="257" text-anchor="middle" dominant-baseline="central">terrain, buildings,</text><text font-size="12" font-weight="500" fill="#5B3FA0" x="895" y="271" text-anchor="middle" dominant-baseline="central">people, routes</text></g>
<path stroke="#555" stroke-width="1.5" d="M450 180 V218" fill="none" marker-end="url(#arrow5)"/>
<g><text font-size="12" font-weight="500" fill="#7a7a7a" x="462" y="199" text-anchor="start" dominant-baseline="central">applied to</text></g>
<path stroke="#555" stroke-width="1.5" d="M298 250 H218" fill="none" marker-end="url(#arrow5)"/>
<g><text font-size="12" font-weight="500" fill="#7a7a7a" x="258" y="238" text-anchor="middle" dominant-baseline="central">renders</text></g>
<path stroke="#555" stroke-width="1.5" d="M600 250 H618" fill="none" marker-end="url(#arrow5)" marker-start="url(#arrow5)"/>
<path stroke="#555" stroke-width="1.5" d="M895 216 V200 H560 V218" fill="none" marker-end="url(#arrow5)"/>
<g><rect fill="#E3F3E4" stroke="#2E8B45" x="40" y="330" width="122" height="56" rx="8" stroke-width="0.75"/><text font-size="14" font-weight="700" fill="#14512A" x="101" y="348" text-anchor="middle" dominant-baseline="central">Perception</text><text font-size="12" font-weight="500" fill="#256E3A" x="101" y="365" text-anchor="middle" dominant-baseline="central">expected vs seen</text></g>
<g><rect fill="#E3F3E4" stroke="#2E8B45" x="260" y="330" width="122" height="56" rx="8" stroke-width="0.75"/><text font-size="14" font-weight="700" fill="#14512A" x="321" y="348" text-anchor="middle" dominant-baseline="central">Inference</text><text font-size="12" font-weight="500" fill="#256E3A" x="321" y="365" text-anchor="middle" dominant-baseline="central">reweight scenarios</text></g>
<g><rect fill="#E3F3E4" stroke="#2E8B45" x="440" y="330" width="122" height="56" rx="8" stroke-width="0.75"/><text font-size="14" font-weight="700" fill="#14512A" x="501" y="348" text-anchor="middle" dominant-baseline="central">Planning</text><text font-size="12" font-weight="500" fill="#256E3A" x="501" y="365" text-anchor="middle" dominant-baseline="central">options and plan</text></g>
<g><rect fill="#E3F3E4" stroke="#2E8B45" x="620" y="330" width="122" height="56" rx="8" stroke-width="0.75"/><text font-size="14" font-weight="700" fill="#14512A" x="681" y="348" text-anchor="middle" dominant-baseline="central">Actor</text><text font-size="12" font-weight="500" fill="#256E3A" x="681" y="365" text-anchor="middle" dominant-baseline="central">alerts and tasking</text></g>
<g><path fill="#FBE4E0" stroke="#C2502F" d="M820 329 a75.0 7 0 0 0 150 0 v58 a75.0 7 0 0 1 -150 0 z" stroke-width="0.75"/><ellipse fill="#FBE4E0" stroke="#C2502F" cx="895" cy="329" rx="75.0" ry="7" stroke-width="0.75"/><text font-size="14" font-weight="700" fill="#6B2412" x="895" y="347" text-anchor="middle" dominant-baseline="central">Records and audit</text><text font-size="12" font-weight="500" fill="#8A3A20" x="895" y="363" text-anchor="middle" dominant-baseline="central">what was said, when,</text><text font-size="12" font-weight="500" fill="#8A3A20" x="895" y="377" text-anchor="middle" dominant-baseline="central">to whom, which model</text></g>
<path stroke="#555" stroke-width="1.5" d="M101 276 V328" fill="none" marker-end="url(#arrow5)"/>
<path stroke="#555" stroke-width="1.5" d="M321 330 V302 H400 V282" fill="none" marker-end="url(#arrow5)"/>
<path stroke="#555" stroke-width="1.5" d="M501 280 V328" fill="none" marker-end="url(#arrow5)"/>
<path stroke="#555" stroke-width="1.5" d="M162 358 H258" fill="none" marker-end="url(#arrow5)"/>
<path stroke="#555" stroke-width="1.5" d="M382 358 H438" fill="none" marker-end="url(#arrow5)"/>
<path stroke="#555" stroke-width="1.5" d="M562 358 H618" fill="none" marker-end="url(#arrow5)"/>
<path stroke="#555" stroke-width="1.5" d="M742 358 H818" fill="none" marker-end="url(#arrow5)"/>
<g><path fill="#F3F3F3" stroke="#8A8A8A" d="M40 449 a88.0 7 0 0 0 176 0 v58 a88.0 7 0 0 1 -176 0 z" stroke-width="0.75"/><ellipse fill="#F3F3F3" stroke="#8A8A8A" cx="128" cy="449" rx="88.0" ry="7" stroke-width="0.75"/><text font-size="14" font-weight="700" fill="#222222" x="128" y="467" text-anchor="middle" dominant-baseline="central">Event store</text><text font-size="12" font-weight="500" fill="#555555" x="128" y="483" text-anchor="middle" dominant-baseline="central">every observation,</text><text font-size="12" font-weight="500" fill="#555555" x="128" y="497" text-anchor="middle" dominant-baseline="central">append-only; replays</text></g>
<g><rect fill="#E3F3E4" stroke="#2E8B45" x="430" y="450" width="320" height="56" rx="8" stroke-width="0.75"/><text font-size="14" font-weight="700" fill="#14512A" x="590" y="468" text-anchor="middle" dominant-baseline="central">Product backends · one per product</text><text font-size="12" font-weight="500" fill="#256E3A" x="590" y="485" text-anchor="middle" dominant-baseline="central">app, ops bridge, hardening, review, API</text></g>
<g><path fill="#E3F3E4" stroke="#2E8B45" d="M820 449 a75.0 7 0 0 0 150 0 v58 a75.0 7 0 0 1 -150 0 z" stroke-width="0.75"/><ellipse fill="#E3F3E4" stroke="#2E8B45" cx="895" cy="449" rx="75.0" ry="7" stroke-width="0.75"/><text font-size="14" font-weight="700" fill="#14512A" x="895" y="467" text-anchor="middle" dominant-baseline="central">Product stores</text><text font-size="12" font-weight="500" fill="#256E3A" x="895" y="483" text-anchor="middle" dominant-baseline="central">users and groups,</text><text font-size="12" font-weight="500" fill="#256E3A" x="895" y="497" text-anchor="middle" dominant-baseline="central">client data, packs</text></g>
<path stroke="#555" stroke-width="1.5" d="M101 440 V388" fill="none" marker-end="url(#arrow5)"/>
<path stroke="#555" stroke-width="1.5" d="M681 386 V448" fill="none" marker-end="url(#arrow5)"/>
<path stroke="#555" stroke-width="1.5" d="M752 478 H818" fill="none" marker-end="url(#arrow5)" marker-start="url(#arrow5)"/>
<g><rect fill="#F3F3F3" stroke="#8A8A8A" x="40" y="530" width="176" height="56" rx="8" stroke-width="0.75"/><text font-size="14" font-weight="700" fill="#222222" x="128" y="548" text-anchor="middle" dominant-baseline="central">Ingestion</text><text font-size="12" font-weight="500" fill="#555555" x="128" y="565" text-anchor="middle" dominant-baseline="central">connect, land, curate</text></g>
<g><rect fill="#E3F3E4" stroke="#2E8B45" x="240" y="530" width="160" height="56" rx="8" stroke-width="0.75"/><text font-size="14" font-weight="700" fill="#14512A" x="320" y="548" text-anchor="middle" dominant-baseline="central">Bridge intake</text><text font-size="12" font-weight="500" fill="#256E3A" x="320" y="565" text-anchor="middle" dominant-baseline="central">validates what comes back</text></g>
<g><rect fill="#FBE4E0" stroke="#C2502F" x="430" y="530" width="320" height="56" rx="8" stroke-width="0.75"/><text font-size="14" font-weight="700" fill="#6B2412" x="590" y="548" text-anchor="middle" dominant-baseline="central">Channels</text><text font-size="12" font-weight="500" fill="#8A3A20" x="590" y="565" text-anchor="middle" dominant-baseline="central">push, SMS, cell broadcast, console, the liaison</text></g>
<g><rect fill="#DDF3F0" stroke="#1F8A7A" x="820" y="530" width="150" height="56" rx="8" stroke-width="0.75"/><text font-size="14" font-weight="700" fill="#0B4F46" x="895" y="548" text-anchor="middle" dominant-baseline="central">Training</text><text font-size="12" font-weight="500" fill="#1F6E62" x="895" y="565" text-anchor="middle" dominant-baseline="central">expected vs realized</text></g>
<path stroke="#555" stroke-width="1.5" d="M101 528 V516" fill="none" marker-end="url(#arrow5)"/>
<path stroke="#555" stroke-width="1.5" d="M238 558 H218" fill="none" marker-end="url(#arrow5)"/>
<path stroke="#555" stroke-width="1.5" d="M590 506 V528" fill="none" marker-end="url(#arrow5)"/>
<path stroke="#555" stroke-width="1.5" d="M895 530 V522 H985 V76 H972" fill="none" marker-end="url(#arrow5)"/>
<g><text font-size="12" font-weight="500" fill="#7a7a7a" transform="rotate(-90 993 300)" x="993" y="300" text-anchor="middle" dominant-baseline="central">new versions, signed</text></g>
<g><rect fill="#F3F3F3" stroke="#8A8A8A" x="40" y="610" width="176" height="60" rx="8" stroke-width="0.75"/><text font-size="14" font-weight="700" fill="#222222" x="128" y="628" text-anchor="middle" dominant-baseline="central">Sources</text><text font-size="12" font-weight="500" fill="#555555" x="128" y="645" text-anchor="middle" dominant-baseline="central">satellites, gauges, seismic,</text><text font-size="12" font-weight="500" fill="#555555" x="128" y="660" text-anchor="middle" dominant-baseline="central">weather, agencies, partners</text></g>
<g><rect fill="#FBE4E0" stroke="#C2502F" x="430" y="610" width="320" height="60" rx="8" stroke-width="0.75"/><text font-size="14" font-weight="700" fill="#6B2412" x="590" y="628" text-anchor="middle" dominant-baseline="central">People and clients</text><text font-size="12" font-weight="500" fill="#8A3A20" x="590" y="645" text-anchor="middle" dominant-baseline="central">phones holding a cache slice and a pack,</text><text font-size="12" font-weight="500" fill="#8A3A20" x="590" y="660" text-anchor="middle" dominant-baseline="central">ops centers, officials, investigators, partners</text></g>
<g><path fill="#FBE4E0" stroke="#C2502F" d="M820 609 a75.0 7 0 0 0 150 0 v58 a75.0 7 0 0 1 -150 0 z" stroke-width="0.75"/><ellipse fill="#FBE4E0" stroke="#C2502F" cx="895" cy="609" rx="75.0" ry="7" stroke-width="0.75"/><text font-size="14" font-weight="700" fill="#6B2412" x="895" y="627" text-anchor="middle" dominant-baseline="central">Outcomes</text><text font-size="12" font-weight="500" fill="#8A3A20" x="895" y="643" text-anchor="middle" dominant-baseline="central">sent, received, acted on,</text><text font-size="12" font-weight="500" fill="#8A3A20" x="895" y="657" text-anchor="middle" dominant-baseline="central">what actually happened</text></g>
<path stroke="#555" stroke-width="1.5" d="M101 608 V588" fill="none" marker-end="url(#arrow5)"/>
<path stroke="#555" stroke-width="1.5" d="M590 586 V608" fill="none" marker-end="url(#arrow5)"/>
<path stroke="#555" stroke-width="1.5" d="M752 638 H818" fill="none" marker-end="url(#arrow5)"/>
<path stroke="#555" stroke-width="1.5" d="M895 602 V588" fill="none" marker-end="url(#arrow5)"/>
<path stroke="#555" stroke-width="1.5" d="M590 670 V696 H320 V588" fill="none" marker-end="url(#arrow5)"/>
<g><text font-size="12" font-weight="500" fill="#7a7a7a" x="455" y="710" text-anchor="middle" dominant-baseline="central">bridge data back: photos, check-ins, reports, dispatch logs, client data · every product pays the picture back</text></g>
<g><rect fill="#F3F3F3" stroke="#8A8A8A" x="40" y="734" width="12" height="12" rx="3" stroke-width="0.75"/></g>
<g><text font-size="12" font-weight="500" fill="#7a7a7a" x="58" y="740" text-anchor="start" dominant-baseline="central">data lakehouse</text></g>
<g><rect fill="#DDF3F0" stroke="#1F8A7A" x="169.60000000000002" y="734" width="12" height="12" rx="3" stroke-width="0.75"/></g>
<g><text font-size="12" font-weight="500" fill="#7a7a7a" x="187.60000000000002" y="740" text-anchor="start" dominant-baseline="central">world model development</text></g>
<g><rect fill="#EEE8FA" stroke="#6C4BB8" x="356.80000000000007" y="734" width="12" height="12" rx="3" stroke-width="0.75"/></g>
<g><text font-size="12" font-weight="500" fill="#7a7a7a" x="374.80000000000007" y="740" text-anchor="start" dominant-baseline="central">world state</text></g>
<g><rect fill="#FBF0D6" stroke="#B7791F" x="467.20000000000005" y="734" width="12" height="12" rx="3" stroke-width="0.75"/></g>
<g><text font-size="12" font-weight="500" fill="#7a7a7a" x="485.20000000000005" y="740" text-anchor="start" dominant-baseline="central">expected signals</text></g>
<g><rect fill="#E3F3E4" stroke="#2E8B45" x="609.6" y="734" width="12" height="12" rx="3" stroke-width="0.75"/></g>
<g><text font-size="12" font-weight="500" fill="#7a7a7a" x="627.6" y="740" text-anchor="start" dominant-baseline="central">product development</text></g>
<g><rect fill="#FBE4E0" stroke="#C2502F" x="771.2" y="734" width="12" height="12" rx="3" stroke-width="0.75"/></g>
<g><text font-size="12" font-weight="500" fill="#7a7a7a" x="789.2" y="740" text-anchor="start" dominant-baseline="central">deployed product</text></g>
</svg>
